<?xml version="1.0" encoding="UTF-8"?>
<svg id="_x32_" xmlns="http://www.w3.org/2000/svg" version="1.1" xmlns:xlink="http://www.w3.org/1999/xlink" viewBox="0 0 31.9 32">
  <!-- Generator: Adobe Illustrator 29.8.3, SVG Export Plug-In . SVG Version: 2.1.1 Build 3)  -->
  <defs>
    <style>
      .st0 {
        fill: url(#_名称未設定グラデーション_139);
        stroke: #000;
        stroke-miterlimit: 10;
        stroke-width: .9px;
      }
    </style>
    <radialGradient id="_名称未設定グラデーション_139" data-name="名称未設定グラデーション 139" cx="15.9" cy="15.4" fx="26.1" fy="24.1" r="13.4" gradientUnits="userSpaceOnUse">
      <stop offset="0" stop-color="#ff8a3f"/>
      <stop offset=".5" stop-color="#df0018"/>
      <stop offset=".7" stop-color="#dc0316"/>
      <stop offset=".8" stop-color="#c61405"/>
      <stop offset=".9" stop-color="#bf1a00"/>
    </radialGradient>
  </defs>
  <path class="st0" d="M9.3,22.4c2.8,2,3.4,2.4,4.3,4.3.8,1.5,2,4,2,4,0,.1.2.2.3.2s.3,0,.3-.2c0,0,1.2-2.6,2-4,1-1.9,1.6-2.3,4.3-4.3,3-2.1,5-5.6,5-9.6,0-6.5-5.2-11.7-11.7-11.7S4.2,6.3,4.2,12.8s2,7.5,5,9.6ZM15.9,7.8c2.7,0,5,2.2,5,5s-2.2,5-5,5-5-2.2-5-5c0-2.7,2.2-5,5-5Z"/>
</svg>